<?xml version="1.0" encoding="UTF-8"?>
<svg width="164px" height="235px" viewBox="0 0 164 235" version="1.1" xmlns="http://www.w3.org/2000/svg" xmlns:xlink="http://www.w3.org/1999/xlink">
    <title>logo_HomeScreen</title>
    <defs>
        <circle id="path-1" cx="26" cy="26" r="26"></circle>
        <filter x="-15.4%" y="-9.6%" width="126.9%" height="126.9%" filterUnits="objectBoundingBox" id="filter-2">
            <feOffset dx="-1" dy="2" in="SourceAlpha" result="shadowOffsetOuter1"></feOffset>
            <feGaussianBlur stdDeviation="2" in="shadowOffsetOuter1" result="shadowBlurOuter1"></feGaussianBlur>
            <feColorMatrix values="0 0 0 0 0   0 0 0 0 0   0 0 0 0 0  0 0 0 0.2 0" type="matrix" in="shadowBlurOuter1"></feColorMatrix>
        </filter>
    </defs>
    <g id="Sample-App---Task-App" stroke="none" stroke-width="1" fill="none" fill-rule="evenodd">
        <g id="todo_0.1_Splash" transform="translate(-106.000000, -147.000000)">
            <g id="logo_HomeScreen" transform="translate(106.000000, 147.500000)">
                <path d="M31.67,230.64 C32.482,230.64 33.2193333,230.458 33.882,230.094 C34.5446667,229.73 35.0696667,229.223667 35.457,228.575 C35.8443333,227.926333 36.038,227.172667 36.038,226.314 C36.038,226.183333 36.0333333,226.050333 36.024,225.915 C36.0146667,225.779667 35.996,225.632667 35.968,225.474 L35.968,225.474 L31.628,225.474 L31.628,226.972 L34.414,226.972 L34.414,227.056 C34.414,227.448 34.2903333,227.805 34.043,228.127 C33.7956667,228.449 33.469,228.703333 33.063,228.89 C32.657,229.076667 32.2066667,229.17 31.712,229.17 C31.2266667,229.17 30.767,229.076667 30.333,228.89 C29.899,228.703333 29.5163333,228.446667 29.185,228.12 C28.8536667,227.793333 28.5946667,227.413 28.408,226.979 C28.2213333,226.545 28.128,226.085333 28.128,225.6 C28.128,224.937333 28.2843333,224.34 28.597,223.808 C28.9096667,223.276 29.332,222.856 29.864,222.548 C30.396,222.24 30.9933333,222.086 31.656,222.086 C32.5986667,222.086 33.4946667,222.492 34.344,223.304 L34.344,223.304 L35.324,222.282 C35.0813333,221.955333 34.7686667,221.666 34.386,221.414 C34.0033333,221.162 33.5763333,220.966 33.105,220.826 C32.6336667,220.686 32.1506667,220.616 31.656,220.616 C30.9466667,220.616 30.284,220.742 29.668,220.994 C29.052,221.246 28.513,221.598333 28.051,222.051 C27.589,222.503667 27.2296667,223.033333 26.973,223.64 C26.7163333,224.246667 26.588,224.9 26.588,225.6 C26.588,226.309333 26.7163333,226.969667 26.973,227.581 C27.2296667,228.192333 27.5913333,228.726667 28.058,229.184 C28.5246667,229.641333 29.066,229.998333 29.682,230.255 C30.298,230.511667 30.9606667,230.64 31.67,230.64 Z M41.078,230.64 C41.6006667,230.64 42.128,230.535 42.66,230.325 C43.192,230.115 43.6306667,229.842 43.976,229.506 L43.976,229.506 L43.248,228.484 C42.884,228.801333 42.5456667,229.020667 42.233,229.142 C41.9203333,229.263333 41.582,229.324 41.218,229.324 C40.5086667,229.324 39.923,229.130333 39.461,228.743 C38.999,228.355667 38.726,227.830667 38.642,227.168 L38.642,227.168 L44.27,227.168 L44.284,226.552 C44.3026667,225.861333 44.165,225.25 43.871,224.718 C43.577,224.186 43.1756667,223.766 42.667,223.458 C42.1583333,223.15 41.5866667,222.991333 40.952,222.982 C40.224,222.991333 39.5776667,223.161667 39.013,223.493 C38.4483333,223.824333 38.005,224.281667 37.683,224.865 C37.361,225.448333 37.2,226.127333 37.2,226.902 C37.2,227.63 37.3656667,228.274 37.697,228.834 C38.0283333,229.394 38.4856667,229.835 39.069,230.157 C39.6523333,230.479 40.322,230.64 41.078,230.64 Z M42.814,226.02 L38.698,226.02 C38.9406667,224.881333 39.692,224.312 40.952,224.312 C41.2693333,224.312 41.5633333,224.382 41.834,224.522 C42.1046667,224.662 42.3286667,224.853333 42.506,225.096 C42.6833333,225.338667 42.786,225.614 42.814,225.922 L42.814,225.922 L42.814,226.02 Z M48.204,230.5 L48.204,224.55 L49.912,224.55 L49.912,223.15 L48.204,223.15 L48.204,221.274 L46.762,221.274 L46.762,223.15 L45.236,223.15 L45.236,224.55 L46.762,224.55 L46.762,230.5 L48.204,230.5 Z M58.886,230.5 L58.886,222.156 L61.714,222.156 L61.714,220.7 L54.63,220.7 L54.63,222.156 L57.374,222.156 L57.374,230.5 L58.886,230.5 Z M64.654,230.5 L64.654,226.048 C64.654,225.721333 64.738,225.427333 64.906,225.166 C65.074,224.904667 65.305,224.697 65.599,224.543 C65.893,224.389 66.222,224.312 66.586,224.312 C67.622,224.256 68.14,224.858 68.14,226.118 L68.14,226.118 L68.14,230.5 L69.582,230.5 L69.582,226.02 C69.582,224.004 68.742,222.996 67.062,222.996 C66.586,222.996 66.1263333,223.122 65.683,223.374 C65.2396667,223.626 64.8966667,223.934 64.654,224.298 L64.654,224.298 L64.654,220.14 L63.212,220.14 L63.212,230.5 L64.654,230.5 Z M72.508,221.526 C72.8066667,221.526 73.0423333,221.442 73.215,221.274 C73.3876667,221.106 73.474,220.886667 73.474,220.616 C73.474,220.326667 73.39,220.102667 73.222,219.944 C73.054,219.785333 72.816,219.706 72.508,219.706 C72.2093333,219.706 71.9736667,219.79 71.801,219.958 C71.6283333,220.126 71.542,220.345333 71.542,220.616 C71.542,220.905333 71.626,221.129333 71.794,221.288 C71.962,221.446667 72.2,221.526 72.508,221.526 Z M73.25,230.5 L73.25,223.15 L71.808,223.15 L71.808,230.5 L73.25,230.5 Z M76.876,230.5 L76.876,226.048 C76.876,225.721333 76.96,225.427333 77.128,225.166 C77.296,224.904667 77.527,224.697 77.821,224.543 C78.115,224.389 78.444,224.312 78.808,224.312 C79.844,224.256 80.362,224.858 80.362,226.118 L80.362,226.118 L80.362,230.5 L81.804,230.5 L81.804,226.02 C81.804,224.004 80.964,222.996 79.284,222.996 C78.808,222.996 78.3483333,223.122 77.905,223.374 C77.4616667,223.626 77.1186667,223.934 76.876,224.298 L76.876,224.298 L76.876,223.15 L75.434,223.15 L75.434,230.5 L76.876,230.5 Z M87.054,233.72 C88.23,233.72 89.154,233.400333 89.826,232.761 C90.498,232.121667 90.834,231.218667 90.834,230.052 L90.834,230.052 L90.834,223.15 L89.392,223.15 L89.392,224.144 C89.1493333,223.845333 88.804,223.579333 88.356,223.346 C87.908,223.112667 87.4273333,222.996 86.914,222.996 C86.2326667,222.996 85.619,223.161667 85.073,223.493 C84.527,223.824333 84.0976667,224.277 83.785,224.851 C83.4723333,225.425 83.316,226.080667 83.316,226.818 C83.316,227.555333 83.4746667,228.211 83.792,228.785 C84.1093333,229.359 84.541,229.811667 85.087,230.143 C85.633,230.474333 86.256,230.64 86.956,230.64 C87.292,230.64 87.621,230.579333 87.943,230.458 C88.265,230.336667 88.5543333,230.178 88.811,229.982 C89.0676667,229.786 89.2613333,229.571333 89.392,229.338 L89.392,229.338 L89.392,230.22 C89.392,231.694667 88.6126667,232.432 87.054,232.432 C86.6433333,232.432 86.2303333,232.366667 85.815,232.236 C85.3996667,232.105333 85.052,231.932667 84.772,231.718 L84.772,231.718 L84.24,232.838 C84.5573333,233.099333 84.975,233.311667 85.493,233.475 C86.011,233.638333 86.5313333,233.72 87.054,233.72 Z M87.11,229.31 C86.662,229.31 86.263,229.202667 85.913,228.988 C85.563,228.773333 85.2876667,228.477 85.087,228.099 C84.8863333,227.721 84.786,227.294 84.786,226.818 C84.786,226.342 84.8863333,225.915 85.087,225.537 C85.2876667,225.159 85.563,224.860333 85.913,224.641 C86.263,224.421667 86.662,224.312 87.11,224.312 C87.5673333,224.312 87.971,224.419333 88.321,224.634 C88.671,224.848667 88.9463333,225.145 89.147,225.523 C89.3476667,225.901 89.448,226.332667 89.448,226.818 C89.448,227.303333 89.35,227.732667 89.154,228.106 C88.958,228.479333 88.6826667,228.773333 88.328,228.988 C87.9733333,229.202667 87.5673333,229.31 87.11,229.31 Z M95.3,230.64 C95.7946667,230.64 96.2426667,230.546667 96.644,230.36 C97.0453333,230.173333 97.365,229.914333 97.603,229.583 C97.841,229.251667 97.96,228.876 97.96,228.456 C97.96,228.166667 97.9226667,227.905333 97.848,227.672 C97.7733333,227.438667 97.6426667,227.233333 97.456,227.056 C97.2786667,226.869333 97.0383333,226.703667 96.735,226.559 C96.4316667,226.414333 96.0466667,226.281333 95.58,226.16 C94.9453333,226.001333 94.53,225.842667 94.334,225.684 C94.138,225.525333 94.0353333,225.32 94.026,225.068 C94.026,224.778667 94.1356667,224.559333 94.355,224.41 C94.5743333,224.260667 94.8846667,224.186 95.286,224.186 C95.5566667,224.186 95.8576667,224.267667 96.189,224.431 C96.5203333,224.594333 96.8213333,224.811333 97.092,225.082 L97.092,225.082 L97.918,224.172 C97.6193333,223.808 97.225,223.521 96.735,223.311 C96.245,223.101 95.7386667,222.996 95.216,222.996 C94.7213333,222.996 94.2756667,223.087 93.879,223.269 C93.4823333,223.451 93.1673333,223.700667 92.934,224.018 C92.7006667,224.335333 92.584,224.699333 92.584,225.11 C92.584,225.623333 92.7193333,226.048 92.99,226.384 C93.1766667,226.608 93.4426667,226.808667 93.788,226.986 C94.1333333,227.163333 94.5766667,227.322 95.118,227.462 C95.7526667,227.63 96.1586667,227.784 96.336,227.924 C96.5133333,228.073333 96.602,228.269333 96.602,228.512 C96.602,228.801333 96.4923333,229.03 96.273,229.198 C96.0536667,229.366 95.7713333,229.45 95.426,229.45 C95.006,229.45 94.6303333,229.377667 94.299,229.233 C93.9676667,229.088333 93.662,228.852667 93.382,228.526 L93.382,228.526 L92.402,229.366 C92.7286667,229.786 93.1393333,230.103333 93.634,230.318 C94.1286667,230.532667 94.684,230.64 95.3,230.64 Z M107.676,230.5 C108.618667,230.5 109.433,230.294667 110.119,229.884 C110.805,229.473333 111.334667,228.901667 111.708,228.169 C112.081333,227.436333 112.268,226.58 112.268,225.6 C112.268,224.629333 112.079,223.775333 111.701,223.038 C111.323,222.300667 110.791,221.726667 110.105,221.316 C109.419,220.905333 108.609333,220.7 107.676,220.7 L107.676,220.7 L103.84,220.7 L103.84,230.5 L107.676,230.5 Z M107.606,229.044 L105.352,229.044 L105.352,222.156 L107.606,222.156 C108.586,222.156 109.351333,222.464 109.902,223.08 C110.452667,223.696 110.728,224.536 110.728,225.6 C110.728,226.673333 110.455,227.515667 109.909,228.127 C109.363,228.738333 108.595333,229.044 107.606,229.044 L107.606,229.044 Z M117.252,230.64 C117.961333,230.64 118.598333,230.474333 119.163,230.143 C119.727667,229.811667 120.173333,229.359 120.5,228.785 C120.826667,228.211 120.99,227.555333 120.99,226.818 C120.99,226.080667 120.826667,225.425 120.5,224.851 C120.173333,224.277 119.727667,223.824333 119.163,223.493 C118.598333,223.161667 117.961333,222.996 117.252,222.996 C116.533333,222.996 115.891667,223.161667 115.327,223.493 C114.762333,223.824333 114.316667,224.277 113.99,224.851 C113.663333,225.425 113.5,226.080667 113.5,226.818 C113.5,227.555333 113.663333,228.211 113.99,228.785 C114.316667,229.359 114.762333,229.811667 115.327,230.143 C115.891667,230.474333 116.533333,230.64 117.252,230.64 Z M117.252,229.324 C116.813333,229.324 116.419,229.214333 116.069,228.995 C115.719,228.775667 115.446,228.477 115.25,228.099 C115.054,227.721 114.960667,227.294 114.97,226.818 C114.960667,226.342 115.054,225.915 115.25,225.537 C115.446,225.159 115.719,224.860333 116.069,224.641 C116.419,224.421667 116.813333,224.312 117.252,224.312 C117.690667,224.312 118.082667,224.419333 118.428,224.634 C118.773333,224.848667 119.044,225.145 119.24,225.523 C119.436,225.901 119.529333,226.332667 119.52,226.818 C119.529333,227.294 119.436,227.721 119.24,228.099 C119.044,228.477 118.773333,228.775667 118.428,228.995 C118.082667,229.214333 117.690667,229.324 117.252,229.324 Z M124,230.5 L124,226.048 C124,225.721333 124.084,225.427333 124.252,225.166 C124.42,224.904667 124.651,224.697 124.945,224.543 C125.239,224.389 125.568,224.312 125.932,224.312 C126.968,224.256 127.486,224.858 127.486,226.118 L127.486,226.118 L127.486,230.5 L128.928,230.5 L128.928,226.02 C128.928,224.004 128.088,222.996 126.408,222.996 C125.932,222.996 125.472333,223.122 125.029,223.374 C124.585667,223.626 124.242667,223.934 124,224.298 L124,224.298 L124,223.15 L122.558,223.15 L122.558,230.5 L124,230.5 Z M134.318,230.64 C134.840667,230.64 135.368,230.535 135.9,230.325 C136.432,230.115 136.870667,229.842 137.216,229.506 L137.216,229.506 L136.488,228.484 C136.124,228.801333 135.785667,229.020667 135.473,229.142 C135.160333,229.263333 134.822,229.324 134.458,229.324 C133.748667,229.324 133.163,229.130333 132.701,228.743 C132.239,228.355667 131.966,227.830667 131.882,227.168 L131.882,227.168 L137.51,227.168 L137.524,226.552 C137.542667,225.861333 137.405,225.25 137.111,224.718 C136.817,224.186 136.415667,223.766 135.907,223.458 C135.398333,223.15 134.826667,222.991333 134.192,222.982 C133.464,222.991333 132.817667,223.161667 132.253,223.493 C131.688333,223.824333 131.245,224.281667 130.923,224.865 C130.601,225.448333 130.44,226.127333 130.44,226.902 C130.44,227.63 130.605667,228.274 130.937,228.834 C131.268333,229.394 131.725667,229.835 132.309,230.157 C132.892333,230.479 133.562,230.64 134.318,230.64 Z M136.054,226.02 L131.938,226.02 C132.180667,224.881333 132.932,224.312 134.192,224.312 C134.509333,224.312 134.803333,224.382 135.074,224.522 C135.344667,224.662 135.568667,224.853333 135.746,225.096 C135.923333,225.338667 136.026,225.614 136.054,225.922 L136.054,225.922 L136.054,226.02 Z" id="GetThingsDone" fill="#FFFFFF" fill-rule="nonzero" opacity="0.6"></path>
                <g id="Group" transform="translate(15.000000, 0.000000)">
                    <path d="M67,0 C103.174651,0 132.5,29.3253489 132.5,65.5 C132.5,101.674651 103.174651,131 67,131 C62.8578644,131 59.5,127.642136 59.5,123.5 C59.5,119.439083 62.7274744,116.131982 66.7572689,116.003854 L67,116 C94.8903799,116 117.5,93.3903799 117.5,65.5 C117.5,37.6096201 94.8903799,15 67,15 C39.1096201,15 16.5,37.6096201 16.5,65.5 C16.5,69.6421356 13.1421356,73 9,73 C4.85786438,73 1.5,69.6421356 1.5,65.5 C1.5,29.3253489 30.8253489,0 67,0 Z" id="Oval" fill="#FFFFFF"></path>
                    <g transform="translate(0.000000, 76.500000)" id="btn/square">
                        <g id="button">
                            <use fill="black" fill-opacity="1" filter="url(#filter-2)" xlink:href="#path-1"></use>
                            <use fill="#42BEA5" fill-rule="evenodd" xlink:href="#path-1"></use>
                        </g>
                        <g id="icon" transform="translate(11.818182, 11.818182)" fill="#FFFFFF">
                            <path d="M10.5969186,22.6264308 L3.82828667,15.3574672 C3.45117717,14.9575359 3.45117717,14.306584 3.82828667,13.9023981 L5.19555032,12.4494563 C5.57265982,12.049525 6.18570448,12.049525 6.56281398,12.4494563 L11.2815174,17.5379436 L21.7999715,6.21010301 C22.177081,5.81017174 22.7901256,5.81017174 23.1672351,6.21010301 L24.5344988,7.66517211 C24.9116083,8.06510338 24.9116083,8.71818264 24.5344988,9.11598661 L11.9641823,22.6264308 C11.5870728,23.0263621 10.9740281,23.0263621 10.5969186,22.6264308" id="check-mark"></path>
                        </g>
                    </g>
                </g>
                <path d="M9.252,194.5 L9.252,185.752 L11.952,185.752 L16.884,194.5 L24.264,194.5 L18.648,184.852 C20.04,184.156 21.15,183.154 21.978,181.846 C22.806,180.538 23.22,179.032 23.22,177.328 C23.22,175.792 22.842,174.418 22.086,173.206 C21.33,171.994 20.298,171.04 18.99,170.344 C17.682,169.648 16.2,169.3 14.544,169.3 L14.544,169.3 L3.096,169.3 L3.096,194.5 L9.252,194.5 Z M13.86,180.892 L9.252,180.892 L9.252,174.628 L13.428,174.628 C14.508,174.628 15.348,174.91 15.948,175.474 C16.548,176.038 16.848,176.788 16.848,177.724 C16.848,178.684 16.584,179.452 16.056,180.028 C15.528,180.604 14.796,180.892 13.86,180.892 L13.86,180.892 Z M36.936,194.86 C38.928,194.86 40.71,194.428 42.282,193.564 C43.854,192.7 45.09,191.524 45.99,190.036 C46.89,188.548 47.34,186.844 47.34,184.924 C47.34,183.004 46.89,181.294 45.99,179.794 C45.09,178.294 43.854,177.112 42.282,176.248 C40.71,175.384 38.928,174.952 36.936,174.952 C34.944,174.952 33.162,175.384 31.59,176.248 C30.018,177.112 28.776,178.294 27.864,179.794 C26.952,181.294 26.496,183.004 26.496,184.924 C26.496,186.844 26.952,188.548 27.864,190.036 C28.776,191.524 30.018,192.7 31.59,193.564 C33.162,194.428 34.944,194.86 36.936,194.86 Z M36.936,189.64 C35.712,189.64 34.698,189.196 33.894,188.308 C33.09,187.42 32.688,186.292 32.688,184.924 C32.688,183.532 33.09,182.386 33.894,181.486 C34.698,180.586 35.712,180.136 36.936,180.136 C38.16,180.136 39.168,180.586 39.96,181.486 C40.752,182.386 41.148,183.532 41.148,184.924 C41.148,186.292 40.752,187.42 39.96,188.308 C39.168,189.196 38.16,189.64 36.936,189.64 Z M62.82,194.896 C64.428,194.896 65.862,194.47 67.122,193.618 C68.382,192.766 69.372,191.59 70.092,190.09 C70.812,188.59 71.172,186.868 71.172,184.924 C71.172,183.004 70.806,181.294 70.074,179.794 C69.342,178.294 68.334,177.112 67.05,176.248 C65.766,175.384 64.296,174.952 62.64,174.952 C61.584,174.952 60.576,175.162 59.616,175.582 C58.656,176.002 57.852,176.548 57.204,177.22 L57.204,177.22 L57.204,167.86 L51.084,167.86 L51.084,194.464 L56.7,194.464 L56.88,192.484 C57.528,193.204 58.374,193.786 59.418,194.23 C60.462,194.674 61.596,194.896 62.82,194.896 Z M61.128,189.784 C59.88,189.784 58.884,189.346 58.14,188.47 C57.396,187.594 57.024,186.412 57.024,184.924 C57.024,183.436 57.396,182.254 58.14,181.378 C58.884,180.502 59.88,180.064 61.128,180.064 C62.376,180.064 63.372,180.502 64.116,181.378 C64.86,182.254 65.232,183.436 65.232,184.924 C65.232,186.412 64.86,187.594 64.116,188.47 C63.372,189.346 62.376,189.784 61.128,189.784 Z M78.372,171.64 C79.5,171.64 80.382,171.352 81.018,170.776 C81.654,170.2 81.972,169.456 81.972,168.544 C81.972,167.584 81.654,166.834 81.018,166.294 C80.382,165.754 79.5,165.484 78.372,165.484 C77.268,165.484 76.398,165.772 75.762,166.348 C75.126,166.924 74.808,167.656 74.808,168.544 C74.808,169.528 75.12,170.29 75.744,170.83 C76.368,171.37 77.244,171.64 78.372,171.64 Z M81.432,194.5 L81.432,175.348 L75.348,175.348 L75.348,194.5 L81.432,194.5 Z M92.952,194.5 L92.952,183.052 C92.952,182.212 93.264,181.504 93.888,180.928 C94.512,180.352 95.304,180.064 96.264,180.064 C98.112,180.016 99.036,181.072 99.036,183.232 L99.036,183.232 L99.036,194.5 L105.156,194.5 L105.156,182.728 C105.156,180.208 104.586,178.282 103.446,176.95 C102.306,175.618 100.656,174.952 98.496,174.952 C97.368,174.952 96.294,175.192 95.274,175.672 C94.254,176.152 93.408,176.788 92.736,177.58 L92.736,177.58 L92.592,175.348 L86.868,175.348 L86.868,194.5 L92.952,194.5 Z M112.14,194.896 C113.076,194.896 113.844,194.59 114.444,193.978 C115.044,193.366 115.344,192.568 115.344,191.584 C115.344,190.528 115.062,189.718 114.498,189.154 C113.934,188.59 113.148,188.308 112.14,188.308 C111.18,188.308 110.406,188.614 109.818,189.226 C109.23,189.838 108.936,190.624 108.936,191.584 C108.936,192.64 109.212,193.456 109.764,194.032 C110.316,194.608 111.108,194.896 112.14,194.896 Z M126.504,194.896 C127.728,194.896 128.862,194.668 129.906,194.212 C130.95,193.756 131.784,193.18 132.408,192.484 L132.408,192.484 L132.588,194.5 L138.204,194.5 L138.204,167.86 L132.084,167.86 L132.084,177.148 C131.436,176.5 130.626,175.972 129.654,175.564 C128.682,175.156 127.656,174.952 126.576,174.952 C124.92,174.952 123.45,175.384 122.166,176.248 C120.882,177.112 119.868,178.294 119.124,179.794 C118.38,181.294 118.008,183.004 118.008,184.924 C118.008,186.868 118.38,188.59 119.124,190.09 C119.868,191.59 120.876,192.766 122.148,193.618 C123.42,194.47 124.872,194.896 126.504,194.896 Z M128.124,189.856 C126.876,189.856 125.886,189.412 125.154,188.524 C124.422,187.636 124.056,186.436 124.056,184.924 C124.056,183.436 124.422,182.248 125.154,181.36 C125.886,180.472 126.876,180.028 128.124,180.028 C129.396,180.028 130.398,180.472 131.13,181.36 C131.862,182.248 132.228,183.436 132.228,184.924 C132.228,186.436 131.862,187.636 131.13,188.524 C130.398,189.412 129.396,189.856 128.124,189.856 Z M152.1,194.86 C154.092,194.86 155.874,194.428 157.446,193.564 C159.018,192.7 160.254,191.524 161.154,190.036 C162.054,188.548 162.504,186.844 162.504,184.924 C162.504,183.004 162.054,181.294 161.154,179.794 C160.254,178.294 159.018,177.112 157.446,176.248 C155.874,175.384 154.092,174.952 152.1,174.952 C150.108,174.952 148.326,175.384 146.754,176.248 C145.182,177.112 143.94,178.294 143.028,179.794 C142.116,181.294 141.66,183.004 141.66,184.924 C141.66,186.844 142.116,188.548 143.028,190.036 C143.94,191.524 145.182,192.7 146.754,193.564 C148.326,194.428 150.108,194.86 152.1,194.86 Z M152.1,189.64 C150.876,189.64 149.862,189.196 149.058,188.308 C148.254,187.42 147.852,186.292 147.852,184.924 C147.852,183.532 148.254,182.386 149.058,181.486 C149.862,180.586 150.876,180.136 152.1,180.136 C153.324,180.136 154.332,180.586 155.124,181.486 C155.916,182.386 156.312,183.532 156.312,184.924 C156.312,186.292 155.916,187.42 155.124,188.308 C154.332,189.196 153.324,189.64 152.1,189.64 Z" id="Robin.do" fill="#FFFFFF" fill-rule="nonzero"></path>
            </g>
        </g>
    </g>
</svg>